<?xml version="1.0" encoding="UTF-8"?>
<svg width="26px" height="26px" viewBox="0 0 26 26" version="1.1" xmlns="http://www.w3.org/2000/svg" xmlns:xlink="http://www.w3.org/1999/xlink">
    <title>ic_close</title>
    <g id="效果图" stroke="none" stroke-width="1" fill="none" fill-rule="evenodd" opacity="0.899999976">
        <g id="切图" transform="translate(-306.000000, -27.000000)" fill="#FFFFFF">
            <g id="ic_close" transform="translate(306.000000, 27.000000)">
                <path d="M10.1715729,8.75735931 L12.9994661,11.5844661 L15.8284271,8.75735931 C16.1889111,8.39687535 16.7561421,8.36914582 17.1484333,8.67417071 L17.2426407,8.75735931 C17.633165,9.1478836 17.633165,9.78104858 17.2426407,10.1715729 L17.2426407,10.1715729 L14.4144661,12.9994661 L17.2426407,15.8284271 C17.633165,16.2189514 17.633165,16.8521164 17.2426407,17.2426407 C16.8521164,17.633165 16.2189514,17.633165 15.8284271,17.2426407 L12.9994661,14.4144661 L10.1715729,17.2426407 C9.81108891,17.6031246 9.24385786,17.6308542 8.85156665,17.3258293 L8.75735931,17.2426407 C8.36683502,16.8521164 8.36683502,16.2189514 8.75735931,15.8284271 L8.75735931,15.8284271 L11.5844661,12.9994661 L8.75735931,10.1715729 C8.36683502,9.78104858 8.36683502,9.1478836 8.75735931,8.75735931 C9.1478836,8.36683502 9.78104858,8.36683502 10.1715729,8.75735931 Z" id="形状结合"></path>
            </g>
        </g>
    </g>
</svg>